# xmcd CD database file
#
# Track frame offsets:
#	150
#	17707
#	46097
#	68750
#	85110
#	115777
#	130935
#	141012
#	156595
#	174362
#	190090
#	220985
#	231982
#	241137
#	246805
#	253905
#
# Disc length: 3489 seconds
#
# Revision: 4
# Processed by: cddbd v1.5.2PL0 Copyright (c) Steve Scherf et al.
# Submitted via: CDex 1.51
#
DISCID=da0d9f10
DTITLE=Various Artist - Duphly and Bodin de Boismortier - Pièces de clavecin
DYEAR=1900
DGENRE=Classique
TTITLE0=Jacques Duphly - La de Vaucanson . . . . . . . . . . {Jos van Immerseel, clavecin - rec.1974}
TTITLE1=Jacques Duphly - La Forqueray
TTITLE2=Jacques Duphly - Menuet
TTITLE3=Jacques Duphly - La de Drummond
TTITLE4=Jacques Duphly - Chaconne
TTITLE5=Jacques Duphly - Medée
TTITLE6=Jacques Duphly - Rondeau
TTITLE7=Jacques Duphly - La Victoire
TTITLE8=Jacques Duphly - La Félix
TTITLE9=Jacques Duphly - La de Redmond
TTITLE10=Jacques Duphly - La Pothouïn
TTITLE11=Joseph Bodin de Boismortier - La Caverneuse . . . . {Laurence Boulay, clavecin - rec.1967}
TTITLE12=Joseph Bodin de Boismortier - La Marguillère
TTITLE13=Joseph Bodin de Boismortier - La Transalpine
TTITLE14=Joseph Bodin de Boismortier - La Valétudinaire
TTITLE15=Joseph Bodin de Boismortier - La Décharnée
EXTD=
EXTT0=
EXTT1=
EXTT2=
EXTT3=
EXTT4=
EXTT5=
EXTT6=
EXTT7=
EXTT8=
EXTT9=
EXTT10=
EXTT11=
EXTT12=
EXTT13=
EXTT14=
EXTT15=
PLAYORDER=
